ffmpeg version 4.2.7-0ubuntu0.1 Copyright (c) 2000-2022 the FFmpeg developers
  built with gcc 9 (Ubuntu 9.4.0-1ubuntu1~20.04.1)
  configuration: --prefix=/usr --extra-version=0ubuntu0.1 --toolchain=hardened --libdir=/usr/lib/x86_64-linux-gnu --incdir=/usr/include/x86_64-linux-gnu --arch=amd64 --enable-gpl --disable-stripping --enable-avresample --disable-filter=resample --enable-avisynth --enable-gnutls --enable-ladspa --enable-libaom --enable-libass --enable-libbluray --enable-libbs2b --enable-libcaca --enable-libcdio --enable-libcodec2 --enable-libflite --enable-libfontconfig --enable-libfreetype --enable-libfribidi --enable-libgme --enable-libgsm --enable-libjack --enable-libmp3lame --enable-libmysofa --enable-libopenjpeg --enable-libopenmpt --enable-libopus --enable-libpulse --enable-librsvg --enable-librubberband --enable-libshine --enable-libsnappy --enable-libsoxr --enable-libspeex --enable-libssh --enable-libtheora --enable-libtwolame --enable-libvidstab --enable-libvorbis --enable-libvpx --enable-libwavpack --enable-libwebp --enable-libx265 --enable-libxml2 --enable-libxvid --enable-libzmq --enable-libzvbi --enable-lv2 --enable-omx --enable-openal --enable-opencl --enable-opengl --enable-sdl2 --enable-libdc1394 --enable-libdrm --enable-libiec61883 --enable-nvenc --enable-chromaprint --enable-frei0r --enable-libx264 --enable-shared
  libavutil      56. 31.100 / 56. 31.100
  libavcodec     58. 54.100 / 58. 54.100
  libavformat    58. 29.100 / 58. 29.100
  libavdevice    58.  8.100 / 58.  8.100
  libavfilter     7. 57.100 /  7. 57.100
  libavresample   4.  0.  0 /  4.  0.  0
  libswscale      5.  5.100 /  5.  5.100
  libswresample   3.  5.100 /  3.  5.100
  libpostproc    55.  5.100 / 55.  5.100
Routing option strict to both codec and muxer layer
[h264 @ 0x55d64cbfc940] Reinit context to 848x480, pix_fmt: yuv420p
Input #0, mov,mp4,m4a,3gp,3g2,mj2, from '/var/www/html/project/media/video/original/d3470e75-9bf1-4dde-9b33-928234200ed7.mov':
  Metadata:
    major_brand     : qt  
    minor_version   : 0
    compatible_brands: qt  
    creation_time   : 2024-05-04T17:45:19.000000Z
    com.apple.photos.originating.signature: AfP3FZAqATRGr3+3gyVlZUx5jbaB
    com.apple.quicktime.creationdate: 2024-05-04T17:56:20+02:00
  Duration: 00:00:13.60, start: 0.000000, bitrate: 2210 kb/s
    Stream #0:0(und): Audio: aac (LC) (mp4a / 0x6134706D), 48000 Hz, stereo, fltp, 287 kb/s (default)
    Metadata:
      creation_time   : 2024-05-04T17:45:19.000000Z
      handler_name    : Core Media Audio
    Stream #0:1(und): Video: h264 (High), 1 reference frame (avc1 / 0x31637661), yuv420p(tv, bt470bg/bt470bg/smpte170m, progressive, left), 848x478 (848x480), 1917 kb/s, 30.02 fps, 30 tbr, 90k tbn, 180k tbc (default)
    Metadata:
      creation_time   : 2024-05-04T17:45:19.000000Z
      handler_name    : Core Media Video
      encoder         : 'avc1'
Input #1, png_pipe, from '/var/www/html/project/static/images/templates/logo.png':
  Duration: N/A, bitrate: N/A
    Stream #1:0: Video: png, 1 reference frame, rgba(pc), 1920x1080 [SAR 2835:2835 DAR 16:9], 25 tbr, 25 tbn, 25 tbc
[Parsed_scale_0 @ 0x55d64cc5b6c0] w:1920 h:1080 flags:'bilinear' interl:0
[Parsed_scale_2 @ 0x55d64cc0f000] w:1920 h:1080 flags:'bilinear' interl:0
Stream mapping:
  Stream #0:1 (h264) -> scale (graph 0)
  Stream #1:0 (png) -> scale (graph 0)
  overlay (graph 0) -> Stream #0:0 (libx264)
  Stream #0:0 -> #0:1 (aac (native) -> aac (native))
Press [q] to stop, [?] for help
[graph_1_in_0_0 @ 0x55d64cfe5740] tb:1/48000 samplefmt:fltp samplerate:48000 chlayout:0x3
[h264 @ 0x55d64cc6f7c0] Reinit context to 848x480, pix_fmt: yuv420p
[Parsed_scale_0 @ 0x55d64cc5a840] w:1920 h:1080 flags:'bilinear' interl:0
[Parsed_scale_2 @ 0x55d64d3040c0] w:1920 h:1080 flags:'bilinear' interl:0
[graph 0 input from stream 0:1 @ 0x55d64d3063c0] w:848 h:478 pixfmt:yuv420p tb:1/90000 fr:30/1 sar:0/1 sws_param:flags=2
[graph 0 input from stream 1:0 @ 0x55d64d307400] w:1920 h:1080 pixfmt:rgba tb:1/25 fr:25/1 sar:2835/2835 sws_param:flags=2
[Parsed_scale_0 @ 0x55d64cc5a840] w:848 h:478 fmt:yuv420p sar:0/1 -> w:1920 h:1080 fmt:yuv420p sar:0/1 flags:0x2
[Parsed_setsar_1 @ 0x55d64d300c00] w:1920 h:1080 sar:0/1 dar:16/9 -> sar:1/1 dar:16/9
[Parsed_scale_2 @ 0x55d64d3040c0] w:1920 h:1080 fmt:rgba sar:2835/2835 -> w:1920 h:1080 fmt:yuva420p sar:1/1 flags:0x2
[Parsed_setsar_3 @ 0x55d64d304a40] w:1920 h:1080 sar:1/1 dar:16/9 -> sar:1/1 dar:16/9
[Parsed_overlay_4 @ 0x55d64d305640] main w:1920 h:1080 fmt:yuv420p overlay w:1920 h:1080 fmt:yuva420p
[Parsed_overlay_4 @ 0x55d64d305640] [framesync @ 0x55d64d305768] Selected 1/90000 time base
[Parsed_overlay_4 @ 0x55d64d305640] [framesync @ 0x55d64d305768] Sync level 2
[libx264 @ 0x55d64cc19740] using SAR=1/1
[libx264 @ 0x55d64cc19740] using cpu capabilities: MMX2 SSE2Fast SSSE3 SSE4.2 AVX FMA3 BMI2 AVX2
[libx264 @ 0x55d64cc19740] profile High, level 4.0
[libx264 @ 0x55d64cc19740] 264 - core 155 r2917 0a84d98 - H.264/MPEG-4 AVC codec - Copyleft 2003-2018 - http://www.videolan.org/x264.html - options: cabac=1 ref=1 deblock=1:0:0 analyse=0x3:0x113 me=hex subme=2 psy=1 psy_rd=1.00:0.00 mixed_ref=0 me_range=16 chroma_me=1 trellis=0 8x8dct=1 cqm=0 deadzone=21,11 fast_pskip=1 chroma_qp_offset=0 threads=24 lookahead_threads=8 sliced_threads=0 nr=0 decimate=1 interlaced=0 bluray_compat=0 constrained_intra=0 bframes=3 b_pyramid=2 b_adapt=1 b_bias=0 direct=1 weightb=1 open_gop=0 weightp=1 keyint=250 keyint_min=25 scenecut=40 intra_refresh=0 rc_lookahead=10 rc=crf mbtree=1 crf=18.0 qcomp=0.60 qpmin=0 qpmax=69 qpstep=4 ip_ratio=1.40 aq=1:1.00
Output #0, mp4, to '/var/www/html/project/media/video/watermarks/d3470e75-9bf1-4dde-9b33-928234200ed7.mp4':
  Metadata:
    major_brand     : qt  
    minor_version   : 0
    compatible_brands: qt  
    com.apple.quicktime.creationdate: 2024-05-04T17:56:20+02:00
    com.apple.photos.originating.signature: AfP3FZAqATRGr3+3gyVlZUx5jbaB
    encoder         : Lavf58.29.100
    Stream #0:0: Video: h264 (libx264), 1 reference frame (avc1 / 0x31637661), yuv420p, 1920x1080 [SAR 1:1 DAR 16:9], q=-1--1, 30 fps, 15360 tbn, 30 tbc (default)
    Metadata:
      encoder         : Lavc58.54.100 libx264
    Side data:
      cpb: bitrate max/min/avg: 0/0/0 buffer size: 0 vbv_delay: -1
    Stream #0:1(und): Audio: aac (LC) (mp4a / 0x6134706D), 48000 Hz, stereo, fltp, delay 1024, 128 kb/s (default)
    Metadata:
      creation_time   : 2024-05-04T17:45:19.000000Z
      handler_name    : Core Media Audio
      encoder         : Lavc58.54.100 aac
[Parsed_overlay_4 @ 0x55d64d305640] [framesync @ 0x55d64d305768] Sync level 0
No more output streams to write to, finishing.
frame=  408 fps= 27 q=-1.0 Lsize=   33834kB time=00:00:13.60 bitrate=20377.8kbits/s speed=0.888x    
[AVIOContext @ 0x55d64cbf90c0] Statistics: 0 seeks, 28 writeouts
video:33603kB audio:215kB subtitle:0kB other streams:0kB global headers:0kB muxing overhead: 0.048301%
Input file #0 (/var/www/html/project/media/video/original/d3470e75-9bf1-4dde-9b33-928234200ed7.mov):
  Input stream #0:0 (audio): 638 packets read (489100 bytes); 638 frames decoded (653312 samples); 
  Input stream #0:1 (video): 408 packets read (3257648 bytes); 408 frames decoded; 
  Total: 1046 packets (3746748 bytes) demuxed
Input file #1 (/var/www/html/project/static/images/templates/logo.png):
  Input stream #1:0 (video): 1 packets read (111578 bytes); 1 frames decoded; 
  Total: 1 packets (111578 bytes) demuxed
Output file #0 (/var/www/html/project/media/video/watermarks/d3470e75-9bf1-4dde-9b33-928234200ed7.mp4):
  Output stream #0:0 (video): 408 frames encoded; 408 packets muxed (34409115 bytes); 
  Output stream #0:1 (audio): 638 frames encoded (653312 samples); 639 packets muxed (219890 bytes); 
  Total: 1047 packets (34629005 bytes) muxed
[AVIOContext @ 0x55d64cc19c40] Statistics: 2 seeks, 136 writeouts
[libx264 @ 0x55d64cc19740] frame I:2     Avg QP:19.57  size:352986
[libx264 @ 0x55d64cc19740] frame P:105   Avg QP:21.43  size:175022
[libx264 @ 0x55d64cc19740] frame B:301   Avg QP:24.88  size: 50914
[libx264 @ 0x55d64cc19740] consecutive B-frames:  1.5%  0.5%  0.0% 98.0%
[libx264 @ 0x55d64cc19740] mb I  I16..4:  1.4%  6.4% 92.2%
[libx264 @ 0x55d64cc19740] mb P  I16..4:  0.9%  4.1%  5.3%  P16..4: 31.4% 26.0% 30.3%  0.0%  0.0%    skip: 1.9%
[libx264 @ 0x55d64cc19740] mb B  I16..4:  0.2%  0.3%  0.2%  B16..8: 29.9% 17.9%  4.7%  direct:25.6%  skip:21.4%  L0:32.5% L1:40.0% BI:27.4%
[libx264 @ 0x55d64cc19740] 8x8 transform intra:35.6% inter:47.3%
[libx264 @ 0x55d64cc19740] coded y,uvDC,uvAC intra: 85.3% 68.6% 34.0% inter: 46.2% 29.6% 3.7%
[libx264 @ 0x55d64cc19740] i16 v,h,dc,p: 25% 53% 13%  9%
[libx264 @ 0x55d64cc19740] i8 v,h,dc,ddl,ddr,vr,hd,vl,hu: 20% 40% 13%  3%  4%  4%  7%  4%  6%
[libx264 @ 0x55d64cc19740] i4 v,h,dc,ddl,ddr,vr,hd,vl,hu: 19% 33%  9%  5%  7%  5%  9%  5%  8%
[libx264 @ 0x55d64cc19740] i8c dc,h,v,p: 37% 34% 18% 11%
[libx264 @ 0x55d64cc19740] Weighted P-Frames: Y:0.0% UV:0.0%
[libx264 @ 0x55d64cc19740] kb/s:20240.25
[aac @ 0x55d64cc6d240] Qavg: 940.541
[AVIOContext @ 0x55d64cc02040] Statistics: 25021168 bytes read, 754 seeks
[AVIOContext @ 0x55d64cc0e340] Statistics: 111578 bytes read, 0 seeks
